<svg width="642" height="654" viewBox="0 0 642 654" fill="none" xmlns="http://www.w3.org/2000/svg">
<rect x="54.8274" y="123.613" width="456.494" height="529.796" stroke="white"/>
<ellipse cx="423.182" cy="5.04559" rx="4.76557" ry="5.04559" fill="#DAFAE5"/>
<ellipse cx="423.182" cy="134.213" rx="4.76557" ry="5.04559" fill="#DAFAE5"/>
<ellipse cx="423.182" cy="69.6293" rx="4.76557" ry="5.04559" fill="#DAFAE5"/>
<ellipse cx="423.182" cy="198.796" rx="4.76557" ry="5.04559" fill="#DAFAE5"/>
<ellipse cx="423.182" cy="37.3373" rx="4.76557" ry="5.04559" fill="#DAFAE5"/>
<ellipse cx="423.182" cy="166.505" rx="4.76557" ry="5.04559" fill="#DAFAE5"/>
<ellipse cx="423.182" cy="101.921" rx="4.76557" ry="5.04559" fill="#DAFAE5"/>
<ellipse cx="423.182" cy="231.088" rx="4.76557" ry="5.04559" fill="#DAFAE5"/>
<ellipse cx="545.181" cy="5.04559" rx="4.76557" ry="5.04559" fill="#DAFAE5"/>
<ellipse cx="545.181" cy="134.213" rx="4.76557" ry="5.04559" fill="#DAFAE5"/>
<ellipse cx="545.181" cy="69.6293" rx="4.76557" ry="5.04559" fill="#DAFAE5"/>
<ellipse cx="545.181" cy="198.796" rx="4.76557" ry="5.04559" fill="#DAFAE5"/>
<ellipse cx="545.181" cy="37.3373" rx="4.76557" ry="5.04559" fill="#DAFAE5"/>
<ellipse cx="545.181" cy="166.505" rx="4.76557" ry="5.04559" fill="#DAFAE5"/>
<ellipse cx="545.181" cy="101.921" rx="4.76557" ry="5.04559" fill="#DAFAE5"/>
<ellipse cx="545.181" cy="231.088" rx="4.76557" ry="5.04559" fill="#DAFAE5"/>
<ellipse cx="484.181" cy="5.04559" rx="4.76557" ry="5.04559" fill="#DAFAE5"/>
<ellipse cx="484.181" cy="134.213" rx="4.76557" ry="5.04559" fill="#DAFAE5"/>
<ellipse cx="484.181" cy="69.6293" rx="4.76557" ry="5.04559" fill="#DAFAE5"/>
<ellipse cx="484.181" cy="198.796" rx="4.76557" ry="5.04559" fill="#DAFAE5"/>
<ellipse cx="484.181" cy="37.3373" rx="4.76557" ry="5.04559" fill="#DAFAE5"/>
<ellipse cx="484.181" cy="166.505" rx="4.76557" ry="5.04559" fill="#DAFAE5"/>
<ellipse cx="484.181" cy="101.921" rx="4.76557" ry="5.04559" fill="#DAFAE5"/>
<ellipse cx="484.181" cy="231.088" rx="4.76557" ry="5.04559" fill="#DAFAE5"/>
<ellipse cx="606.18" cy="5.04559" rx="4.76557" ry="5.04559" fill="#DAFAE5"/>
<ellipse cx="606.18" cy="134.213" rx="4.76557" ry="5.04559" fill="#DAFAE5"/>
<ellipse cx="606.18" cy="69.6293" rx="4.76557" ry="5.04559" fill="#DAFAE5"/>
<ellipse cx="606.18" cy="198.796" rx="4.76557" ry="5.04559" fill="#DAFAE5"/>
<ellipse cx="606.18" cy="37.3373" rx="4.76557" ry="5.04559" fill="#DAFAE5"/>
<ellipse cx="606.18" cy="166.505" rx="4.76557" ry="5.04559" fill="#DAFAE5"/>
<ellipse cx="606.18" cy="101.921" rx="4.76557" ry="5.04559" fill="#DAFAE5"/>
<ellipse cx="606.18" cy="231.088" rx="4.76557" ry="5.04559" fill="#DAFAE5"/>
<ellipse cx="453.682" cy="5.04559" rx="4.76557" ry="5.04559" fill="#DAFAE5"/>
<ellipse cx="453.682" cy="134.213" rx="4.76557" ry="5.04559" fill="#DAFAE5"/>
<ellipse cx="453.682" cy="69.6293" rx="4.76557" ry="5.04559" fill="#DAFAE5"/>
<ellipse cx="453.682" cy="198.796" rx="4.76557" ry="5.04559" fill="#DAFAE5"/>
<ellipse cx="453.682" cy="37.3373" rx="4.76557" ry="5.04559" fill="#DAFAE5"/>
<ellipse cx="453.682" cy="166.505" rx="4.76557" ry="5.04559" fill="#DAFAE5"/>
<ellipse cx="453.682" cy="101.921" rx="4.76557" ry="5.04559" fill="#DAFAE5"/>
<ellipse cx="453.682" cy="231.088" rx="4.76557" ry="5.04559" fill="#DAFAE5"/>
<ellipse cx="575.68" cy="5.04559" rx="4.76557" ry="5.04559" fill="#DAFAE5"/>
<ellipse cx="575.68" cy="134.213" rx="4.76557" ry="5.04559" fill="#DAFAE5"/>
<ellipse cx="575.68" cy="69.6293" rx="4.76557" ry="5.04559" fill="#DAFAE5"/>
<ellipse cx="575.68" cy="198.796" rx="4.76557" ry="5.04559" fill="#DAFAE5"/>
<ellipse cx="575.68" cy="37.3373" rx="4.76557" ry="5.04559" fill="#DAFAE5"/>
<ellipse cx="575.68" cy="166.505" rx="4.76557" ry="5.04559" fill="#DAFAE5"/>
<ellipse cx="575.68" cy="101.921" rx="4.76557" ry="5.04559" fill="#DAFAE5"/>
<ellipse cx="575.68" cy="231.088" rx="4.76557" ry="5.04559" fill="#DAFAE5"/>
<ellipse cx="514.681" cy="5.04559" rx="4.76557" ry="5.04559" fill="#DAFAE5"/>
<ellipse cx="514.681" cy="134.213" rx="4.76557" ry="5.04559" fill="#DAFAE5"/>
<ellipse cx="514.681" cy="69.6293" rx="4.76557" ry="5.04559" fill="#DAFAE5"/>
<ellipse cx="514.681" cy="198.796" rx="4.76557" ry="5.04559" fill="#DAFAE5"/>
<ellipse cx="514.681" cy="37.3373" rx="4.76557" ry="5.04559" fill="#DAFAE5"/>
<ellipse cx="514.681" cy="166.505" rx="4.76557" ry="5.04559" fill="#DAFAE5"/>
<ellipse cx="514.681" cy="101.921" rx="4.76557" ry="5.04559" fill="#DAFAE5"/>
<ellipse cx="514.681" cy="231.088" rx="4.76557" ry="5.04559" fill="#DAFAE5"/>
<ellipse cx="636.679" cy="5.04559" rx="4.76557" ry="5.04559" fill="#DAFAE5"/>
<ellipse cx="636.679" cy="134.213" rx="4.76557" ry="5.04559" fill="#DAFAE5"/>
<ellipse cx="636.679" cy="69.6293" rx="4.76557" ry="5.04559" fill="#DAFAE5"/>
<ellipse cx="636.679" cy="198.796" rx="4.76557" ry="5.04559" fill="#DAFAE5"/>
<ellipse cx="636.679" cy="37.3373" rx="4.76557" ry="5.04559" fill="#DAFAE5"/>
<ellipse cx="636.679" cy="166.505" rx="4.76557" ry="5.04559" fill="#DAFAE5"/>
<ellipse cx="636.679" cy="101.921" rx="4.76557" ry="5.04559" fill="#DAFAE5"/>
<ellipse cx="636.679" cy="231.088" rx="4.76557" ry="5.04559" fill="#DAFAE5"/>
<ellipse cx="4.76559" cy="320.9" rx="4.76557" ry="5.04559" fill="#DAFAE5"/>
<ellipse cx="4.76558" cy="450.067" rx="4.76557" ry="5.04559" fill="#DAFAE5"/>
<ellipse cx="4.76558" cy="385.483" rx="4.76557" ry="5.04559" fill="#DAFAE5"/>
<ellipse cx="4.76558" cy="514.651" rx="4.76557" ry="5.04559" fill="#DAFAE5"/>
<ellipse cx="4.76558" cy="353.192" rx="4.76557" ry="5.04559" fill="#DAFAE5"/>
<ellipse cx="4.76558" cy="482.359" rx="4.76557" ry="5.04559" fill="#DAFAE5"/>
<ellipse cx="4.76558" cy="417.775" rx="4.76557" ry="5.04559" fill="#DAFAE5"/>
<ellipse cx="4.76558" cy="546.942" rx="4.76557" ry="5.04559" fill="#DAFAE5"/>
<ellipse cx="126.764" cy="320.9" rx="4.76557" ry="5.04559" fill="#DAFAE5"/>
<ellipse cx="126.764" cy="450.067" rx="4.76557" ry="5.04559" fill="#DAFAE5"/>
<ellipse cx="126.764" cy="385.483" rx="4.76557" ry="5.04559" fill="#DAFAE5"/>
<ellipse cx="126.764" cy="514.651" rx="4.76557" ry="5.04559" fill="#DAFAE5"/>
<ellipse cx="126.764" cy="353.192" rx="4.76557" ry="5.04559" fill="#DAFAE5"/>
<ellipse cx="126.764" cy="482.359" rx="4.76557" ry="5.04559" fill="#DAFAE5"/>
<ellipse cx="126.764" cy="417.775" rx="4.76557" ry="5.04559" fill="#DAFAE5"/>
<ellipse cx="126.764" cy="546.942" rx="4.76557" ry="5.04559" fill="#DAFAE5"/>
<ellipse cx="65.7648" cy="320.9" rx="4.76557" ry="5.04559" fill="#DAFAE5"/>
<ellipse cx="65.7648" cy="450.067" rx="4.76557" ry="5.04559" fill="#DAFAE5"/>
<ellipse cx="65.7648" cy="385.483" rx="4.76557" ry="5.04559" fill="#DAFAE5"/>
<ellipse cx="65.7648" cy="514.651" rx="4.76557" ry="5.04559" fill="#DAFAE5"/>
<ellipse cx="65.7648" cy="353.192" rx="4.76557" ry="5.04559" fill="#DAFAE5"/>
<ellipse cx="65.7648" cy="482.359" rx="4.76557" ry="5.04559" fill="#DAFAE5"/>
<ellipse cx="65.7648" cy="417.775" rx="4.76557" ry="5.04559" fill="#DAFAE5"/>
<ellipse cx="65.7648" cy="546.942" rx="4.76557" ry="5.04559" fill="#DAFAE5"/>
<ellipse cx="187.763" cy="320.9" rx="4.76557" ry="5.04559" fill="#DAFAE5"/>
<ellipse cx="187.763" cy="450.067" rx="4.76557" ry="5.04559" fill="#DAFAE5"/>
<ellipse cx="187.763" cy="385.483" rx="4.76557" ry="5.04559" fill="#DAFAE5"/>
<ellipse cx="187.763" cy="514.651" rx="4.76557" ry="5.04559" fill="#DAFAE5"/>
<ellipse cx="187.763" cy="353.192" rx="4.76557" ry="5.04559" fill="#DAFAE5"/>
<ellipse cx="187.763" cy="482.359" rx="4.76557" ry="5.04559" fill="#DAFAE5"/>
<ellipse cx="187.763" cy="417.775" rx="4.76557" ry="5.04559" fill="#DAFAE5"/>
<ellipse cx="187.763" cy="546.942" rx="4.76557" ry="5.04559" fill="#DAFAE5"/>
<ellipse cx="35.2652" cy="320.9" rx="4.76557" ry="5.04559" fill="#DAFAE5"/>
<ellipse cx="35.2652" cy="450.067" rx="4.76557" ry="5.04559" fill="#DAFAE5"/>
<ellipse cx="35.2652" cy="385.483" rx="4.76557" ry="5.04559" fill="#DAFAE5"/>
<ellipse cx="35.2652" cy="514.651" rx="4.76557" ry="5.04559" fill="#DAFAE5"/>
<ellipse cx="35.2652" cy="353.192" rx="4.76557" ry="5.04559" fill="#DAFAE5"/>
<ellipse cx="35.2652" cy="482.359" rx="4.76557" ry="5.04559" fill="#DAFAE5"/>
<ellipse cx="35.2652" cy="417.775" rx="4.76557" ry="5.04559" fill="#DAFAE5"/>
<ellipse cx="35.2652" cy="546.942" rx="4.76557" ry="5.04559" fill="#DAFAE5"/>
<ellipse cx="157.264" cy="320.9" rx="4.76557" ry="5.04559" fill="#DAFAE5"/>
<ellipse cx="157.264" cy="450.067" rx="4.76557" ry="5.04559" fill="#DAFAE5"/>
<ellipse cx="157.264" cy="385.483" rx="4.76557" ry="5.04559" fill="#DAFAE5"/>
<ellipse cx="157.264" cy="514.651" rx="4.76557" ry="5.04559" fill="#DAFAE5"/>
<ellipse cx="157.264" cy="353.192" rx="4.76557" ry="5.04559" fill="#DAFAE5"/>
<ellipse cx="157.264" cy="482.359" rx="4.76557" ry="5.04559" fill="#DAFAE5"/>
<ellipse cx="157.264" cy="417.775" rx="4.76557" ry="5.04559" fill="#DAFAE5"/>
<ellipse cx="157.264" cy="546.942" rx="4.76557" ry="5.04559" fill="#DAFAE5"/>
<ellipse cx="96.2643" cy="320.9" rx="4.76557" ry="5.04559" fill="#DAFAE5"/>
<ellipse cx="96.2643" cy="450.067" rx="4.76557" ry="5.04559" fill="#DAFAE5"/>
<ellipse cx="96.2643" cy="385.483" rx="4.76557" ry="5.04559" fill="#DAFAE5"/>
<ellipse cx="96.2643" cy="514.651" rx="4.76557" ry="5.04559" fill="#DAFAE5"/>
<ellipse cx="96.2643" cy="353.192" rx="4.76557" ry="5.04559" fill="#DAFAE5"/>
<ellipse cx="96.2643" cy="482.359" rx="4.76557" ry="5.04559" fill="#DAFAE5"/>
<ellipse cx="96.2643" cy="417.775" rx="4.76557" ry="5.04559" fill="#DAFAE5"/>
<ellipse cx="96.2643" cy="546.942" rx="4.76557" ry="5.04559" fill="#DAFAE5"/>
<ellipse cx="218.263" cy="320.9" rx="4.76557" ry="5.04559" fill="#DAFAE5"/>
<ellipse cx="218.263" cy="450.067" rx="4.76557" ry="5.04559" fill="#DAFAE5"/>
<ellipse cx="218.263" cy="385.483" rx="4.76557" ry="5.04559" fill="#DAFAE5"/>
<ellipse cx="218.263" cy="514.651" rx="4.76557" ry="5.04559" fill="#DAFAE5"/>
<ellipse cx="218.263" cy="353.192" rx="4.76557" ry="5.04559" fill="#DAFAE5"/>
<ellipse cx="218.263" cy="482.359" rx="4.76557" ry="5.04559" fill="#DAFAE5"/>
<ellipse cx="218.263" cy="417.775" rx="4.76557" ry="5.04559" fill="#DAFAE5"/>
<ellipse cx="218.263" cy="546.942" rx="4.76557" ry="5.04559" fill="#DAFAE5"/>
<rect x="101.03" y="69.6292" width="460.354" height="530.796"/>
</svg>
